<svg width="320" height="208" viewBox="0 0 320 208" fill="none" xmlns="http://www.w3.org/2000/svg">
<g clip-path="url(#clip0)">
<path d="M198 72H10C4.47715 72 0 76.4772 0 82V146C0 151.523 4.47715 156 10 156H198C203.523 156 208 151.523 208 146V82C208 76.4772 203.523 72 198 72Z" fill="#112950" stroke="#7B8BA5" stroke-width="2" stroke-dasharray="7 7"/>
<path d="M197.5 0.5H10.5C4.97715 0.5 0.5 4.97715 0.5 10.5V43.5C0.5 49.0228 4.97715 53.5 10.5 53.5H197.5C203.023 53.5 207.5 49.0228 207.5 43.5V10.5C207.5 4.97715 203.023 0.5 197.5 0.5Z" fill="#324B72" stroke="#49638C"/>
<path fill-rule="evenodd" clip-rule="evenodd" d="M28 92.707L18.707 102L28 111.293L30.293 109L23.293 102L30.293 95L28 92.707ZM42 92.707L51.293 102L42 111.293L39.707 109L46.707 102L39.707 95L42 92.707Z" fill="#324B72" stroke="#49638C"/>
<path d="M309.5 0.5H236.5C230.977 0.5 226.5 4.97715 226.5 10.5V73.5C226.5 79.0229 230.977 83.5 236.5 83.5H309.5C315.023 83.5 319.5 79.0229 319.5 73.5V10.5C319.5 4.97715 315.023 0.5 309.5 0.5Z" fill="#324B72" stroke="#49638C"/>
<path d="M309.5 102.5H236.5C230.977 102.5 226.5 106.977 226.5 112.5V145.5C226.5 151.023 230.977 155.5 236.5 155.5H309.5C315.023 155.5 319.5 151.023 319.5 145.5V112.5C319.5 106.977 315.023 102.5 309.5 102.5Z" fill="#324B72" stroke="#49638C"/>
<path opacity="0.344" fill-rule="evenodd" clip-rule="evenodd" d="M251 92C166 41.333 107.5 16 75.5 16C27.5 16 0 58.5 0 84V146C0 151.523 4.477 156 10 156H198.5C207.193 156 209.5 145.5 244.5 140C247.833 127 250 111 251 92Z" fill="#5C9FFF"/>
<path d="M242.5 15.5H78.5C72.9772 15.5 68.5 19.9772 68.5 25.5V130.5C68.5 136.023 72.9772 140.5 78.5 140.5H242.5C248.023 140.5 252.5 136.023 252.5 130.5V25.5C252.5 19.9772 248.023 15.5 242.5 15.5Z" fill="#A6BCE2" stroke="#112950"/>
<path fill-rule="evenodd" clip-rule="evenodd" d="M163.45 40.755L166.7 35.125C166.798 34.9544 166.93 34.8048 167.086 34.6848C167.242 34.5649 167.421 34.4768 167.611 34.4258C167.801 34.3748 168 34.3618 168.195 34.3874C168.39 34.4131 168.579 34.477 168.75 34.5755C168.92 34.674 169.07 34.8052 169.19 34.9615C169.31 35.1178 169.398 35.2962 169.449 35.4865C169.5 35.6768 169.513 35.8753 169.487 36.0706C169.461 36.266 169.397 36.4544 169.299 36.625L166.049 42.255L163.45 40.755ZM155.95 53.745L152.7 59.375C152.501 59.7197 152.447 60.1292 152.55 60.5136C152.653 60.8979 152.905 61.2256 153.25 61.4245C153.594 61.6234 154.004 61.6773 154.388 61.5742C154.772 61.4712 155.1 61.2197 155.299 60.875L158.549 55.245L155.95 53.745ZM168.5 46.5H175C175.398 46.5 175.779 46.6581 176.061 46.9394C176.342 47.2207 176.5 47.6022 176.5 48C176.5 48.3979 176.342 48.7794 176.061 49.0607C175.779 49.342 175.398 49.5 175 49.5H168.5V46.5ZM153.5 46.5H147C146.602 46.5 146.221 46.6581 145.939 46.9394C145.658 47.2207 145.5 47.6022 145.5 48C145.5 48.3979 145.658 48.7794 145.939 49.0607C146.221 49.342 146.602 49.5 147 49.5H153.5" fill="#5C9FFF"/>
<path d="M153.5 46.5H147C146.602 46.5 146.221 46.6581 145.939 46.9394C145.658 47.2207 145.5 47.6022 145.5 48C145.5 48.3979 145.658 48.7794 145.939 49.0607C146.221 49.342 146.602 49.5 147 49.5H153.5M163.45 40.755L166.7 35.125C166.798 34.9544 166.93 34.8048 167.086 34.6848C167.242 34.5649 167.421 34.4768 167.611 34.4258C167.801 34.3748 168 34.3618 168.195 34.3874C168.39 34.4131 168.579 34.477 168.75 34.5755C168.92 34.674 169.07 34.8052 169.19 34.9615C169.31 35.1178 169.398 35.2962 169.449 35.4865C169.5 35.6768 169.513 35.8753 169.487 36.0706C169.461 36.266 169.397 36.4544 169.299 36.625L166.049 42.255L163.45 40.755ZM155.95 53.745L152.7 59.375C152.501 59.7197 152.447 60.1292 152.55 60.5136C152.653 60.8979 152.905 61.2256 153.25 61.4245C153.594 61.6234 154.004 61.6773 154.388 61.5742C154.772 61.4712 155.1 61.2197 155.299 60.875L158.549 55.245L155.95 53.745ZM168.5 46.5H175C175.398 46.5 175.779 46.6581 176.061 46.9394C176.342 47.2207 176.5 47.6022 176.5 48C176.5 48.3979 176.342 48.7794 176.061 49.0607C175.779 49.342 175.398 49.5 175 49.5H168.5V46.5Z" stroke="#164798" stroke-linecap="round"/>
<path fill-rule="evenodd" clip-rule="evenodd" d="M166.049 53.7451L169.299 59.3751C169.399 59.5457 169.464 59.7345 169.491 59.9305C169.518 60.1265 169.506 60.3258 169.455 60.5171C169.405 60.7083 169.317 60.8877 169.197 61.0448C169.076 61.202 168.926 61.3338 168.755 61.4327C168.584 61.5316 168.394 61.5957 168.198 61.6212C168.002 61.6467 167.803 61.6331 167.612 61.5813C167.421 61.5294 167.242 61.4404 167.086 61.3192C166.93 61.198 166.799 61.047 166.701 60.8751L163.451 55.2451L166.049 53.7451ZM158.549 40.7551L155.299 35.1251C155.099 34.7833 154.771 34.5347 154.388 34.4335C154.005 34.3323 153.598 34.3866 153.255 34.5846C152.912 34.7827 152.661 35.1084 152.557 35.4907C152.454 35.8729 152.505 36.2807 152.701 36.6251L155.951 42.2551" fill="#5C9FFF"/>
<path d="M158.549 40.7551L155.299 35.1251C155.099 34.7833 154.771 34.5347 154.388 34.4335C154.005 34.3323 153.598 34.3866 153.255 34.5846C152.912 34.7827 152.661 35.1084 152.557 35.4907C152.454 35.8729 152.505 36.2807 152.701 36.6251L155.951 42.2551M166.049 53.7451L169.299 59.3751C169.399 59.5457 169.464 59.7345 169.491 59.9305C169.518 60.1265 169.506 60.3258 169.455 60.5171C169.405 60.7083 169.317 60.8877 169.197 61.0448C169.076 61.202 168.926 61.3338 168.755 61.4327C168.584 61.5316 168.394 61.5957 168.198 61.6212C168.002 61.6467 167.803 61.6331 167.612 61.5813C167.421 61.5294 167.242 61.4404 167.086 61.3192C166.93 61.198 166.799 61.047 166.701 60.8751L163.451 55.2451L166.049 53.7451Z" stroke="#164798" stroke-linecap="round"/>
<path d="M161 60C167.627 60 173 54.6274 173 48C173 41.3726 167.627 36 161 36C154.373 36 149 41.3726 149 48C149 54.6274 154.373 60 161 60Z" fill="#5C9FFF" stroke="#164798" stroke-linecap="round"/>
<path fill-rule="evenodd" clip-rule="evenodd" d="M159.5 40.5V34C159.5 33.6022 159.658 33.2206 159.939 32.9393C160.221 32.658 160.602 32.5 161 32.5C161.398 32.5 161.779 32.658 162.061 32.9393C162.342 33.2206 162.5 33.6022 162.5 34V40.5H159.5ZM159.5 55.5V62C159.5 62.3978 159.658 62.7794 159.939 63.0607C160.221 63.342 160.602 63.5 161 63.5C161.398 63.5 161.779 63.342 162.061 63.0607C162.342 62.7794 162.5 62.3978 162.5 62V55.5H159.5ZM166.745 42.95L172.375 39.7C172.546 39.6015 172.734 39.5376 172.929 39.5119C173.125 39.4862 173.323 39.4993 173.514 39.5503C173.704 39.6013 173.882 39.6893 174.039 39.8093C174.195 39.9293 174.326 40.0788 174.425 40.2495C174.523 40.4202 174.587 40.6085 174.613 40.8039C174.638 40.9992 174.625 41.1977 174.574 41.3881C174.523 41.5784 174.435 41.7568 174.315 41.9131C174.195 42.0694 174.046 42.2005 173.875 42.299L168.245 45.549L166.745 42.95ZM153.755 50.45L148.125 53.7C147.78 53.8989 147.529 54.2266 147.426 54.6109C147.323 54.9953 147.377 55.4049 147.576 55.7495C147.774 56.0941 148.102 56.3457 148.486 56.4487C148.871 56.5518 149.28 56.4979 149.625 56.299L155.255 53.049" fill="#5C9FFF"/>
<path d="M153.755 50.45L148.125 53.7C147.78 53.8989 147.529 54.2266 147.426 54.6109C147.323 54.9953 147.377 55.4049 147.576 55.7495C147.774 56.0941 148.102 56.3457 148.486 56.4487C148.871 56.5518 149.28 56.4979 149.625 56.299L155.255 53.049M159.5 40.5V34C159.5 33.6022 159.658 33.2206 159.939 32.9393C160.221 32.658 160.602 32.5 161 32.5C161.398 32.5 161.779 32.658 162.061 32.9393C162.342 33.2206 162.5 33.6022 162.5 34V40.5H159.5ZM159.5 55.5V62C159.5 62.3978 159.658 62.7794 159.939 63.0607C160.221 63.342 160.602 63.5 161 63.5C161.398 63.5 161.779 63.342 162.061 63.0607C162.342 62.7794 162.5 62.3978 162.5 62V55.5H159.5ZM166.745 42.95L172.375 39.7C172.546 39.6015 172.734 39.5376 172.929 39.5119C173.125 39.4862 173.323 39.4993 173.514 39.5503C173.704 39.6013 173.882 39.6893 174.039 39.8093C174.195 39.9293 174.326 40.0788 174.425 40.2495C174.523 40.4202 174.587 40.6085 174.613 40.8039C174.638 40.9992 174.625 41.1977 174.574 41.3881C174.523 41.5784 174.435 41.7568 174.315 41.9131C174.195 42.0694 174.046 42.2005 173.875 42.299L168.245 45.549L166.745 42.95Z" stroke="#164798" stroke-linecap="round"/>
<path fill-rule="evenodd" clip-rule="evenodd" d="M168.245 50.451L173.875 53.701C174.047 53.7988 174.198 53.9296 174.319 54.086C174.44 54.2423 174.529 54.4211 174.581 54.612C174.633 54.8029 174.647 55.0022 174.621 55.1983C174.596 55.3945 174.532 55.5837 174.433 55.755C174.334 55.9263 174.202 56.0764 174.045 56.1966C173.888 56.3167 173.708 56.4046 173.517 56.4552C173.326 56.5057 173.126 56.518 172.93 56.4912C172.734 56.4644 172.546 56.3991 172.375 56.299L166.745 53.049L168.245 50.451ZM155.255 42.951L149.625 39.701C149.281 39.5053 148.873 39.4536 148.491 39.5574C148.108 39.6612 147.783 39.912 147.585 40.255C147.387 40.598 147.332 41.0055 147.433 41.3884C147.535 41.7714 147.783 42.0987 148.125 42.299L153.755 45.549" fill="#5C9FFF"/>
<path d="M155.255 42.951L149.625 39.701C149.281 39.5053 148.873 39.4536 148.491 39.5574C148.108 39.6612 147.783 39.912 147.585 40.255C147.387 40.598 147.332 41.0055 147.433 41.3884C147.535 41.7714 147.783 42.0987 148.125 42.299L153.755 45.549M168.245 50.451L173.875 53.701C174.047 53.7988 174.198 53.9296 174.319 54.086C174.44 54.2423 174.529 54.4211 174.581 54.612C174.633 54.8029 174.647 55.0022 174.621 55.1983C174.596 55.3945 174.532 55.5837 174.433 55.755C174.334 55.9263 174.202 56.0764 174.045 56.1966C173.888 56.3167 173.708 56.4046 173.517 56.4552C173.326 56.5057 173.126 56.518 172.93 56.4912C172.734 56.4644 172.546 56.3991 172.375 56.299L166.745 53.049L168.245 50.451Z" stroke="#164798" stroke-linecap="round"/>
<path fill-rule="evenodd" clip-rule="evenodd" d="M194 81.5H127C126.409 81.4992 125.824 81.6153 125.277 81.8415C124.731 82.0677 124.235 82.3995 123.818 82.818C123.4 83.2354 123.068 83.7314 122.841 84.2775C122.615 84.8236 122.499 85.4089 122.5 86V99C122.5 100.243 123.004 101.368 123.818 102.182C124.235 102.6 124.731 102.932 125.277 103.159C125.824 103.385 126.409 103.501 127 103.5H194C194.591 103.501 195.176 103.385 195.723 103.159C196.269 102.932 196.765 102.6 197.182 102.182C197.6 101.765 197.932 101.269 198.159 100.723C198.385 100.176 198.501 99.5911 198.5 99V86C198.501 85.4089 198.385 84.8236 198.159 84.2775C197.932 83.7314 197.6 83.2354 197.182 82.818C196.765 82.3995 196.269 82.0677 195.723 81.8415C195.176 81.6153 194.591 81.4992 194 81.5Z" fill="#5C9FFF" stroke="#164798" stroke-linecap="round"/>
<path fill-rule="evenodd" clip-rule="evenodd" d="M143.5 86.5H139.5V90.5H135.5V94.5H139.5V98.5H143.5V94.5H147.5V90.5H143.5V86.5Z" fill="white" stroke="#164798" stroke-linecap="round"/>
<path d="M135 127.5H166M135 113.5H187H135ZM154 95.5H187H154ZM154 89.5H175H154ZM135 120.5H187H135Z" stroke="#164798"/>
<path fill-rule="evenodd" clip-rule="evenodd" d="M85 174.5H10C8.75216 174.498 7.51627 174.743 6.36336 175.221C5.21046 175.698 4.16328 176.399 3.28201 177.282C2.39855 178.163 1.69798 179.21 1.22054 180.363C0.743114 181.516 0.498244 182.752 0.500009 184V207.5H94.5V184C94.5018 182.752 94.2569 181.516 93.7795 180.363C93.302 179.21 92.6015 178.163 91.718 177.282C90.8367 176.399 89.7896 175.698 88.6367 175.221C87.4838 174.743 86.2479 174.498 85 174.5ZM198 174.5H123C121.752 174.498 120.516 174.743 119.363 175.221C118.21 175.698 117.163 176.399 116.282 177.282C115.399 178.163 114.698 179.21 114.221 180.363C113.743 181.516 113.498 182.752 113.5 184V207.5H207.5V184C207.502 182.752 207.257 181.516 206.779 180.363C206.302 179.21 205.601 178.163 204.718 177.282C203.837 176.399 202.79 175.698 201.637 175.221C200.484 174.743 199.248 174.498 198 174.5ZM310 174.5H236C234.752 174.498 233.516 174.743 232.363 175.221C231.21 175.698 230.163 176.399 229.282 177.282C228.399 178.163 227.698 179.21 227.221 180.363C226.743 181.516 226.498 182.752 226.5 184V207.5H319.5V184C319.502 182.752 319.257 181.516 318.779 180.363C318.302 179.21 317.601 178.163 316.718 177.282C315.837 176.399 314.79 175.698 313.637 175.221C312.484 174.743 311.248 174.498 310 174.5Z" fill="#324B72" stroke="#49638C"/>
</g>
<defs>
<clipPath id="clip0">
<path d="M0 0H320V208H0V0Z" fill="white"/>
</clipPath>
</defs>
</svg>
