<svg width="320" height="208" viewBox="0 0 320 208" fill="none" xmlns="http://www.w3.org/2000/svg">
<path d="M179.5 78.5H279.5" stroke="#BBC4D3"/>
<path d="M307.5 0.5H242.5C235.873 0.5 230.5 5.87258 230.5 12.5V164.5C230.5 171.127 235.873 176.5 242.5 176.5H307.5C314.127 176.5 319.5 171.127 319.5 164.5V12.5C319.5 5.87258 314.127 0.5 307.5 0.5Z" fill="white" stroke="#D6DBE4"/>
<path fill-rule="evenodd" clip-rule="evenodd" d="M276.45 44.755L279.7 39.125C279.798 38.9544 279.93 38.8048 280.086 38.6848C280.242 38.5649 280.421 38.4768 280.611 38.4258C280.801 38.3748 281 38.3618 281.195 38.3874C281.39 38.4131 281.579 38.477 281.75 38.5755C281.92 38.674 282.07 38.8052 282.19 38.9615C282.31 39.1178 282.398 39.2962 282.449 39.4865C282.5 39.6768 282.513 39.8753 282.487 40.0706C282.461 40.266 282.397 40.4544 282.299 40.625L279.049 46.255L276.45 44.755ZM268.95 57.745L265.7 63.375C265.501 63.7197 265.447 64.1292 265.55 64.5136C265.653 64.8979 265.905 65.2256 266.25 65.4245C266.594 65.6234 267.004 65.6773 267.388 65.5742C267.772 65.4712 268.1 65.2197 268.299 64.875L271.549 59.245L268.95 57.745ZM281.5 50.5H288C288.398 50.5 288.779 50.6581 289.061 50.9394C289.342 51.2207 289.5 51.6022 289.5 52C289.5 52.3979 289.342 52.7794 289.061 53.0607C288.779 53.342 288.398 53.5 288 53.5H281.5V50.5ZM266.5 50.5H260C259.602 50.5 259.221 50.6581 258.939 50.9394C258.658 51.2207 258.5 51.6022 258.5 52C258.5 52.3979 258.658 52.7794 258.939 53.0607C259.221 53.342 259.602 53.5 260 53.5H266.5" fill="#5C9FFF"/>
<path d="M266.5 50.5H260C259.602 50.5 259.221 50.6581 258.939 50.9394C258.658 51.2207 258.5 51.6022 258.5 52C258.5 52.3979 258.658 52.7794 258.939 53.0607C259.221 53.342 259.602 53.5 260 53.5H266.5M276.45 44.755L279.7 39.125C279.798 38.9544 279.93 38.8048 280.086 38.6848C280.242 38.5649 280.421 38.4768 280.611 38.4258C280.801 38.3748 281 38.3618 281.195 38.3874C281.39 38.4131 281.579 38.477 281.75 38.5755C281.92 38.674 282.07 38.8052 282.19 38.9615C282.31 39.1178 282.398 39.2962 282.449 39.4865C282.5 39.6768 282.513 39.8753 282.487 40.0706C282.461 40.266 282.397 40.4544 282.299 40.625L279.049 46.255L276.45 44.755ZM268.95 57.745L265.7 63.375C265.501 63.7197 265.447 64.1292 265.55 64.5136C265.653 64.8979 265.905 65.2256 266.25 65.4245C266.594 65.6234 267.004 65.6773 267.388 65.5742C267.772 65.4712 268.1 65.2197 268.299 64.875L271.549 59.245L268.95 57.745ZM281.5 50.5H288C288.398 50.5 288.779 50.6581 289.061 50.9394C289.342 51.2207 289.5 51.6022 289.5 52C289.5 52.3979 289.342 52.7794 289.061 53.0607C288.779 53.342 288.398 53.5 288 53.5H281.5V50.5Z" stroke="#164798" stroke-linecap="round"/>
<path fill-rule="evenodd" clip-rule="evenodd" d="M279.049 57.7451L282.299 63.3751C282.399 63.5457 282.464 63.7345 282.491 63.9305C282.518 64.1265 282.506 64.3258 282.455 64.5171C282.405 64.7083 282.317 64.8877 282.197 65.0448C282.076 65.202 281.926 65.3338 281.755 65.4327C281.584 65.5316 281.395 65.5957 281.198 65.6212C281.002 65.6467 280.803 65.6331 280.612 65.5813C280.421 65.5294 280.242 65.4404 280.086 65.3192C279.93 65.198 279.799 65.047 279.701 64.8751L276.451 59.2451L279.049 57.7451ZM271.549 44.7551L268.299 39.1251C268.099 38.7833 267.771 38.5347 267.388 38.4335C267.005 38.3323 266.598 38.3866 266.255 38.5846C265.912 38.7827 265.661 39.1084 265.557 39.4907C265.454 39.8729 265.505 40.2807 265.701 40.6251L268.951 46.2551" fill="#5C9FFF"/>
<path d="M271.549 44.7551L268.299 39.1251C268.099 38.7833 267.771 38.5347 267.388 38.4335C267.005 38.3323 266.598 38.3866 266.255 38.5846C265.912 38.7827 265.661 39.1084 265.557 39.4907C265.454 39.8729 265.505 40.2807 265.701 40.6251L268.951 46.2551M279.049 57.7451L282.299 63.3751C282.399 63.5457 282.464 63.7345 282.491 63.9305C282.518 64.1265 282.506 64.3258 282.455 64.5171C282.405 64.7083 282.317 64.8877 282.197 65.0448C282.076 65.202 281.926 65.3338 281.755 65.4327C281.584 65.5316 281.395 65.5957 281.198 65.6212C281.002 65.6467 280.803 65.6331 280.612 65.5813C280.421 65.5294 280.242 65.4404 280.086 65.3192C279.93 65.198 279.799 65.047 279.701 64.8751L276.451 59.2451L279.049 57.7451Z" stroke="#164798" stroke-linecap="round"/>
<path d="M274 64C280.627 64 286 58.6274 286 52C286 45.3726 280.627 40 274 40C267.373 40 262 45.3726 262 52C262 58.6274 267.373 64 274 64Z" fill="#5C9FFF" stroke="#164798" stroke-linecap="round"/>
<path fill-rule="evenodd" clip-rule="evenodd" d="M272.5 44.5V38C272.5 37.6022 272.658 37.2206 272.939 36.9393C273.221 36.658 273.602 36.5 274 36.5C274.398 36.5 274.779 36.658 275.061 36.9393C275.342 37.2206 275.5 37.6022 275.5 38V44.5H272.5ZM272.5 59.5V66C272.5 66.3978 272.658 66.7794 272.939 67.0607C273.221 67.342 273.602 67.5 274 67.5C274.398 67.5 274.779 67.342 275.061 67.0607C275.342 66.7794 275.5 66.3978 275.5 66V59.5H272.5ZM279.745 46.95L285.375 43.7C285.546 43.6015 285.734 43.5376 285.929 43.5119C286.125 43.4862 286.323 43.4993 286.514 43.5503C286.704 43.6013 286.882 43.6893 287.039 43.8093C287.195 43.9293 287.326 44.0788 287.425 44.2495C287.523 44.4202 287.587 44.6085 287.613 44.8039C287.638 44.9992 287.625 45.1977 287.574 45.3881C287.523 45.5784 287.435 45.7568 287.315 45.9131C287.195 46.0694 287.046 46.2005 286.875 46.299L281.245 49.549L279.745 46.95ZM266.755 54.45L261.125 57.7C260.78 57.8989 260.529 58.2266 260.426 58.6109C260.323 58.9953 260.377 59.4049 260.576 59.7495C260.774 60.0941 261.102 60.3457 261.486 60.4487C261.871 60.5518 262.28 60.4979 262.625 60.299L268.255 57.049" fill="#5C9FFF"/>
<path d="M266.755 54.45L261.125 57.7C260.78 57.8989 260.529 58.2266 260.426 58.6109C260.323 58.9953 260.377 59.4049 260.576 59.7495C260.774 60.0941 261.102 60.3457 261.486 60.4487C261.871 60.5518 262.28 60.4979 262.625 60.299L268.255 57.049M272.5 44.5V38C272.5 37.6022 272.658 37.2206 272.939 36.9393C273.221 36.658 273.602 36.5 274 36.5C274.398 36.5 274.779 36.658 275.061 36.9393C275.342 37.2206 275.5 37.6022 275.5 38V44.5H272.5ZM272.5 59.5V66C272.5 66.3978 272.658 66.7794 272.939 67.0607C273.221 67.342 273.602 67.5 274 67.5C274.398 67.5 274.779 67.342 275.061 67.0607C275.342 66.7794 275.5 66.3978 275.5 66V59.5H272.5ZM279.745 46.95L285.375 43.7C285.546 43.6015 285.734 43.5376 285.929 43.5119C286.125 43.4862 286.323 43.4993 286.514 43.5503C286.704 43.6013 286.882 43.6893 287.039 43.8093C287.195 43.9293 287.326 44.0788 287.425 44.2495C287.523 44.4202 287.587 44.6085 287.613 44.8039C287.638 44.9992 287.625 45.1977 287.574 45.3881C287.523 45.5784 287.435 45.7568 287.315 45.9131C287.195 46.0694 287.046 46.2005 286.875 46.299L281.245 49.549L279.745 46.95Z" stroke="#164798" stroke-linecap="round"/>
<path fill-rule="evenodd" clip-rule="evenodd" d="M281.245 54.451L286.875 57.701C287.047 57.7988 287.198 57.9296 287.319 58.086C287.44 58.2423 287.529 58.4211 287.581 58.612C287.633 58.8029 287.647 59.0022 287.621 59.1983C287.596 59.3945 287.532 59.5837 287.433 59.755C287.334 59.9263 287.202 60.0764 287.045 60.1966C286.888 60.3167 286.708 60.4046 286.517 60.4552C286.326 60.5057 286.126 60.518 285.93 60.4912C285.734 60.4644 285.546 60.3991 285.375 60.299L279.745 57.049L281.245 54.451ZM268.255 46.951L262.625 43.701C262.281 43.5053 261.873 43.4536 261.491 43.5574C261.108 43.6612 260.783 43.912 260.585 44.255C260.387 44.598 260.332 45.0055 260.433 45.3884C260.535 45.7714 260.783 46.0987 261.125 46.299L266.755 49.549" fill="#5C9FFF"/>
<path d="M268.255 46.951L262.625 43.701C262.281 43.5053 261.873 43.4536 261.491 43.5574C261.108 43.6612 260.783 43.912 260.585 44.255C260.387 44.598 260.332 45.0055 260.433 45.3884C260.535 45.7714 260.783 46.0987 261.125 46.299L266.755 49.549M281.245 54.451L286.875 57.701C287.047 57.7988 287.198 57.9296 287.319 58.086C287.44 58.2423 287.529 58.4211 287.581 58.612C287.633 58.8029 287.647 59.0022 287.621 59.1983C287.596 59.3945 287.532 59.5837 287.433 59.755C287.334 59.9263 287.202 60.0764 287.045 60.1966C286.888 60.3167 286.708 60.4046 286.517 60.4552C286.326 60.5057 286.126 60.518 285.93 60.4912C285.734 60.4644 285.546 60.3991 285.375 60.299L279.745 57.049L281.245 54.451Z" stroke="#164798" stroke-linecap="round"/>
<path fill-rule="evenodd" clip-rule="evenodd" d="M304 86.5H246C245.409 86.4992 244.824 86.6153 244.277 86.8415C243.731 87.0677 243.235 87.3995 242.818 87.818C242.4 88.2354 242.068 88.7314 241.841 89.2775C241.615 89.8236 241.499 90.4089 241.5 91V110C241.5 111.243 242.004 112.368 242.818 113.182C243.235 113.6 243.731 113.932 244.277 114.159C244.824 114.385 245.409 114.501 246 114.5H304C304.591 114.501 305.176 114.385 305.723 114.159C306.269 113.932 306.765 113.6 307.182 113.182C307.6 112.765 307.932 112.269 308.159 111.723C308.385 111.176 308.501 110.591 308.5 110V91C308.501 90.4089 308.385 89.8236 308.159 89.2775C307.932 88.7314 307.6 88.2354 307.182 87.818C306.765 87.3995 306.269 87.0677 305.723 86.8415C305.176 86.6153 304.591 86.4992 304 86.5Z" fill="#5C9FFF" stroke="#164798" stroke-linecap="round"/>
<path fill-rule="evenodd" clip-rule="evenodd" d="M256.5 94.5H252.5V98.5H248.5V102.5H252.5V106.5H256.5V102.5H260.5V98.5H256.5V94.5Z" fill="white" stroke="#164798" stroke-linecap="round"/>
<path d="M267 103.5H300M267 97.5H288H267Z" stroke="#164798"/>
<path fill-rule="evenodd" clip-rule="evenodd" d="M230.5 64.5C228.661 64.4975 226.84 64.8584 225.141 65.562C223.442 66.2656 221.899 67.2981 220.6 68.6C219.298 69.8987 218.266 71.4419 217.562 73.1408C216.858 74.8398 216.497 76.6611 216.5 78.5C216.5 82.366 218.067 85.866 220.6 88.4C221.899 89.702 223.442 90.7344 225.141 91.438C226.84 92.1416 228.661 92.5025 230.5 92.5V64.5Z" fill="#D6DBE4" stroke="#BBC4D3"/>
<path d="M299 20.5H309M299 12.5H309H299ZM299 16.5H309H299Z" stroke="#D6DBE4"/>
<path d="M248 144.5H279M248 128.5H300H248ZM248 136.5H300H248Z" stroke="#164798"/>
<path fill-rule="evenodd" clip-rule="evenodd" d="M157 0.50001H12C8.82401 0.50001 5.95001 1.78701 3.86801 3.86801C2.79856 4.93476 1.95046 6.20233 1.37247 7.5979C0.794473 8.99346 0.497974 10.4895 0.50001 12V207.5H168.5V12C168.5 8.82401 167.213 5.95001 165.132 3.86801C164.065 2.79856 162.798 1.95046 161.402 1.37247C160.007 0.794473 158.511 0.497974 157 0.50001Z" fill="white" stroke="#D6DBE4"/>
<path fill-rule="evenodd" clip-rule="evenodd" d="M157 0.50001H12C8.82401 0.50001 5.95001 1.78701 3.86801 3.86801C2.79856 4.93476 1.95046 6.20233 1.37247 7.5979C0.794473 8.99346 0.497974 10.4895 0.50001 12V23.5H168.5V12C168.5 8.82401 167.213 5.95001 165.132 3.86801C164.065 2.79856 162.798 1.95046 161.402 1.37247C160.007 0.794473 158.511 0.497974 157 0.50001Z" fill="#EAEEF2" stroke="#D6DBE4"/>
<path fill-rule="evenodd" clip-rule="evenodd" d="M168.5 64.5C172.366 64.5 175.866 66.067 178.4 68.6C179.702 69.8987 180.734 71.4418 181.438 73.1408C182.142 74.8398 182.503 76.6611 182.5 78.5C182.5 82.366 180.933 85.866 178.4 88.4C177.101 89.7019 175.558 90.7344 173.859 91.438C172.16 92.1416 170.339 92.5025 168.5 92.5V64.5Z" fill="#D6DBE4" stroke="#BBC4D3"/>
<path fill-rule="evenodd" clip-rule="evenodd" d="M34 47.5H25C24.4089 47.4992 23.8236 47.6153 23.2775 47.8415C22.7314 48.0677 22.2354 48.3995 21.818 48.818C21.3995 49.2354 21.0676 49.7314 20.8415 50.2775C20.6153 50.8236 20.4992 51.4089 20.5 52C20.5 53.243 21.004 54.368 21.818 55.182C22.2354 55.6005 22.7314 55.9324 23.2775 56.1585C23.8236 56.3847 24.4089 56.5008 25 56.5H34C34.5911 56.5008 35.1765 56.3847 35.7225 56.1585C36.2686 55.9324 36.7646 55.6005 37.182 55.182C37.6005 54.7646 37.9324 54.2686 38.1585 53.7225C38.3847 53.1765 38.5008 52.5911 38.5 52C38.5008 51.4089 38.3847 50.8236 38.1585 50.2775C37.9324 49.7314 37.6005 49.2354 37.182 48.818C36.7646 48.3995 36.2686 48.0677 35.7225 47.8415C35.1765 47.6153 34.5911 47.4992 34 47.5ZM82 47.5H48C47.4089 47.4992 46.8236 47.6153 46.2775 47.8415C45.7314 48.0677 45.2354 48.3995 44.818 48.818C44.3995 49.2354 44.0677 49.7314 43.8415 50.2775C43.6153 50.8236 43.4992 51.4089 43.5 52C43.5 53.243 44.004 54.368 44.818 55.182C45.2354 55.6005 45.7314 55.9324 46.2775 56.1585C46.8236 56.3847 47.4089 56.5008 48 56.5H82C82.5911 56.5008 83.1765 56.3847 83.7225 56.1585C84.2686 55.9324 84.7646 55.6005 85.182 55.182C85.6005 54.7646 85.9324 54.2686 86.1585 53.7225C86.3847 53.1765 86.5008 52.5911 86.5 52C86.5008 51.4089 86.3847 50.8236 86.1585 50.2775C85.9324 49.7314 85.6005 49.2354 85.182 48.818C84.7646 48.3995 84.2686 48.0677 83.7225 47.8415C83.1765 47.6153 82.5911 47.4992 82 47.5ZM142 47.5H96C95.4089 47.4992 94.8235 47.6153 94.2775 47.8415C93.7314 48.0677 93.2354 48.3995 92.818 48.818C92.3995 49.2354 92.0676 49.7314 91.8415 50.2775C91.6153 50.8236 91.4992 51.4089 91.5 52C91.5 53.243 92.004 54.368 92.818 55.182C93.2354 55.6005 93.7314 55.9324 94.2775 56.1585C94.8235 56.3847 95.4089 56.5008 96 56.5H142C142.591 56.5008 143.176 56.3847 143.723 56.1585C144.269 55.9324 144.765 55.6005 145.182 55.182C145.6 54.7646 145.932 54.2686 146.159 53.7225C146.385 53.1765 146.501 52.5911 146.5 52C146.501 51.4089 146.385 50.8236 146.159 50.2775C145.932 49.7314 145.6 49.2354 145.182 48.818C144.765 48.3995 144.269 48.0677 143.723 47.8415C143.176 47.6153 142.591 47.4992 142 47.5ZM66 65.5H25C24.4089 65.4992 23.8236 65.6153 23.2775 65.8415C22.7314 66.0677 22.2354 66.3995 21.818 66.818C21.3995 67.2354 21.0676 67.7314 20.8415 68.2775C20.6153 68.8236 20.4992 69.4089 20.5 70C20.5 71.243 21.004 72.368 21.818 73.182C22.2354 73.6005 22.7314 73.9324 23.2775 74.1585C23.8236 74.3847 24.4089 74.5008 25 74.5H66C66.5911 74.5008 67.1765 74.3847 67.7225 74.1585C68.2686 73.9324 68.7646 73.6005 69.182 73.182C69.6005 72.7646 69.9324 72.2686 70.1585 71.7225C70.3847 71.1765 70.5008 70.5911 70.5 70C70.5008 69.4089 70.3847 68.8236 70.1585 68.2775C69.9324 67.7314 69.6005 67.2354 69.182 66.818C68.7646 66.3995 68.2686 66.0677 67.7225 65.8415C67.1765 65.6153 66.5911 65.4992 66 65.5ZM95 65.5H80C79.4089 65.4992 78.8236 65.6153 78.2775 65.8415C77.7314 66.0677 77.2354 66.3995 76.818 66.818C76.3995 67.2354 76.0676 67.7314 75.8415 68.2775C75.6153 68.8236 75.4992 69.4089 75.5 70C75.5 71.243 76.004 72.368 76.818 73.182C77.2354 73.6005 77.7314 73.9324 78.2775 74.1585C78.8236 74.3847 79.4089 74.5008 80 74.5H95C95.5911 74.5008 96.1765 74.3847 96.7225 74.1585C97.2686 73.9324 97.7646 73.6005 98.182 73.182C98.6005 72.7646 98.9324 72.2686 99.1585 71.7225C99.3847 71.1765 99.5008 70.5911 99.5 70C99.5008 69.4089 99.3847 68.8236 99.1585 68.2775C98.9324 67.7314 98.6005 67.2354 98.182 66.818C97.7646 66.3995 97.2686 66.0677 96.7225 65.8415C96.1765 65.6153 95.5911 65.4992 95 65.5ZM130 65.5H109C108.409 65.4992 107.824 65.6153 107.277 65.8415C106.731 66.0677 106.235 66.3995 105.818 66.818C105.4 67.2354 105.068 67.7314 104.841 68.2775C104.615 68.8236 104.499 69.4089 104.5 70C104.5 71.243 105.004 72.368 105.818 73.182C106.235 73.6005 106.731 73.9324 107.277 74.1585C107.824 74.3847 108.409 74.5008 109 74.5H130C130.591 74.5008 131.176 74.3847 131.723 74.1585C132.269 73.9324 132.765 73.6005 133.182 73.182C133.6 72.7646 133.932 72.2686 134.159 71.7225C134.385 71.1765 134.501 70.5911 134.5 70C134.501 69.4089 134.385 68.8236 134.159 68.2775C133.932 67.7314 133.6 67.2354 133.182 66.818C132.765 66.3995 132.269 66.0677 131.723 65.8415C131.176 65.6153 130.591 65.4992 130 65.5ZM46 83.5H25C24.4089 83.4992 23.8236 83.6153 23.2775 83.8415C22.7314 84.0676 22.2354 84.3995 21.818 84.818C21.3995 85.2354 21.0676 85.7314 20.8415 86.2775C20.6153 86.8236 20.4992 87.4089 20.5 88C20.5 89.243 21.004 90.368 21.818 91.182C22.2354 91.6005 22.7314 91.9324 23.2775 92.1585C23.8236 92.3847 24.4089 92.5008 25 92.5H46C46.5911 92.5008 47.1765 92.3847 47.7225 92.1585C48.2686 91.9324 48.7646 91.6005 49.182 91.182C49.6005 90.7646 49.9324 90.2686 50.1585 89.7225C50.3847 89.1765 50.5008 88.5911 50.5 88C50.5008 87.4089 50.3847 86.8236 50.1585 86.2775C49.9324 85.7314 49.6005 85.2354 49.182 84.818C48.7646 84.3995 48.2686 84.0676 47.7225 83.8415C47.1765 83.6153 46.5911 83.4992 46 83.5ZM107 83.5H60C59.4089 83.4992 58.8236 83.6153 58.2775 83.8415C57.7314 84.0676 57.2354 84.3995 56.818 84.818C56.3995 85.2354 56.0676 85.7314 55.8415 86.2775C55.6153 86.8236 55.4992 87.4089 55.5 88C55.5 89.243 56.004 90.368 56.818 91.182C57.2354 91.6005 57.7314 91.9324 58.2775 92.1585C58.8236 92.3847 59.4089 92.5008 60 92.5H107C107.591 92.5008 108.176 92.3847 108.723 92.1585C109.269 91.9324 109.765 91.6005 110.182 91.182C110.6 90.7646 110.932 90.2686 111.159 89.7225C111.385 89.1765 111.501 88.5911 111.5 88C111.501 87.4089 111.385 86.8236 111.159 86.2775C110.932 85.7314 110.6 85.2354 110.182 84.818C109.765 84.3995 109.269 84.0676 108.723 83.8415C108.176 83.6153 107.591 83.4992 107 83.5ZM145 83.5H121C120.409 83.4992 119.824 83.6153 119.277 83.8415C118.731 84.0676 118.235 84.3995 117.818 84.818C117.4 85.2354 117.068 85.7314 116.841 86.2775C116.615 86.8236 116.499 87.4089 116.5 88C116.5 89.243 117.004 90.368 117.818 91.182C118.235 91.6005 118.731 91.9324 119.277 92.1585C119.824 92.3847 120.409 92.5008 121 92.5H145C145.591 92.5008 146.176 92.3847 146.723 92.1585C147.269 91.9324 147.765 91.6005 148.182 91.182C148.6 90.7646 148.932 90.2686 149.159 89.7225C149.385 89.1765 149.501 88.5911 149.5 88C149.501 87.4089 149.385 86.8236 149.159 86.2775C148.932 85.7314 148.6 85.2354 148.182 84.818C147.765 84.3995 147.269 84.0676 146.723 83.8415C146.176 83.6153 145.591 83.4992 145 83.5ZM51 137.5H25C24.4089 137.499 23.8236 137.615 23.2775 137.841C22.7314 138.068 22.2354 138.4 21.818 138.818C21.3995 139.235 21.0676 139.731 20.8415 140.277C20.6153 140.824 20.4992 141.409 20.5 142C20.5 143.243 21.004 144.368 21.818 145.182C22.2354 145.6 22.7314 145.932 23.2775 146.159C23.8236 146.385 24.4089 146.501 25 146.5H51C51.5911 146.501 52.1765 146.385 52.7225 146.159C53.2686 145.932 53.7646 145.6 54.182 145.182C54.6005 144.765 54.9324 144.269 55.1585 143.723C55.3847 143.176 55.5008 142.591 55.5 142C55.5008 141.409 55.3847 140.824 55.1585 140.277C54.9324 139.731 54.6005 139.235 54.182 138.818C53.7646 138.4 53.2686 138.068 52.7225 137.841C52.1765 137.615 51.5911 137.499 51 137.5ZM88 137.5H65C64.4089 137.499 63.8236 137.615 63.2775 137.841C62.7314 138.068 62.2354 138.4 61.818 138.818C61.3995 139.235 61.0676 139.731 60.8415 140.277C60.6153 140.824 60.4992 141.409 60.5 142C60.5 143.243 61.004 144.368 61.818 145.182C62.2354 145.6 62.7314 145.932 63.2775 146.159C63.8236 146.385 64.4089 146.501 65 146.5H88C88.5911 146.501 89.1765 146.385 89.7225 146.159C90.2686 145.932 90.7646 145.6 91.182 145.182C91.6005 144.765 91.9324 144.269 92.1585 143.723C92.3847 143.176 92.5008 142.591 92.5 142C92.5008 141.409 92.3847 140.824 92.1585 140.277C91.9324 139.731 91.6005 139.235 91.182 138.818C90.7646 138.4 90.2686 138.068 89.7225 137.841C89.1765 137.615 88.5911 137.499 88 137.5ZM135 137.5H102C101.409 137.499 100.824 137.615 100.277 137.841C99.7314 138.068 99.2354 138.4 98.818 138.818C98.3995 139.235 98.0676 139.731 97.8415 140.277C97.6153 140.824 97.4992 141.409 97.5 142C97.5 143.243 98.004 144.368 98.818 145.182C99.2354 145.6 99.7314 145.932 100.277 146.159C100.824 146.385 101.409 146.501 102 146.5H135C135.591 146.501 136.176 146.385 136.723 146.159C137.269 145.932 137.765 145.6 138.182 145.182C138.6 144.765 138.932 144.269 139.159 143.723C139.385 143.176 139.501 142.591 139.5 142C139.501 141.409 139.385 140.824 139.159 140.277C138.932 139.731 138.6 139.235 138.182 138.818C137.765 138.4 137.269 138.068 136.723 137.841C136.176 137.615 135.591 137.499 135 137.5ZM33 155.5H25C24.4089 155.499 23.8236 155.615 23.2775 155.841C22.7314 156.068 22.2354 156.4 21.818 156.818C21.3995 157.235 21.0676 157.731 20.8415 158.277C20.6153 158.824 20.4992 159.409 20.5 160C20.5 161.243 21.004 162.368 21.818 163.182C22.2354 163.6 22.7314 163.932 23.2775 164.159C23.8236 164.385 24.4089 164.501 25 164.5H33C33.5911 164.501 34.1765 164.385 34.7225 164.159C35.2686 163.932 35.7646 163.6 36.182 163.182C36.6005 162.765 36.9324 162.269 37.1585 161.723C37.3847 161.176 37.5008 160.591 37.5 160C37.5008 159.409 37.3847 158.824 37.1585 158.277C36.9324 157.731 36.6005 157.235 36.182 156.818C35.7646 156.4 35.2686 156.068 34.7225 155.841C34.1765 155.615 33.5911 155.499 33 155.5ZM68 155.5H47C46.4089 155.499 45.8236 155.615 45.2775 155.841C44.7314 156.068 44.2354 156.4 43.818 156.818C43.3995 157.235 43.0677 157.731 42.8415 158.277C42.6153 158.824 42.4992 159.409 42.5 160C42.5 161.243 43.004 162.368 43.818 163.182C44.2354 163.6 44.7314 163.932 45.2775 164.159C45.8236 164.385 46.4089 164.501 47 164.5H68C68.5911 164.501 69.1765 164.385 69.7225 164.159C70.2686 163.932 70.7646 163.6 71.182 163.182C71.6005 162.765 71.9324 162.269 72.1585 161.723C72.3847 161.176 72.5008 160.591 72.5 160C72.5008 159.409 72.3847 158.824 72.1585 158.277C71.9324 157.731 71.6005 157.235 71.182 156.818C70.7646 156.4 70.2686 156.068 69.7225 155.841C69.1765 155.615 68.5911 155.499 68 155.5ZM115 155.5H82C81.4089 155.499 80.8236 155.615 80.2775 155.841C79.7314 156.068 79.2354 156.4 78.818 156.818C78.3995 157.235 78.0676 157.731 77.8415 158.277C77.6153 158.824 77.4992 159.409 77.5 160C77.5 161.243 78.004 162.368 78.818 163.182C79.2354 163.6 79.7314 163.932 80.2775 164.159C80.8236 164.385 81.4089 164.501 82 164.5H115C115.591 164.501 116.176 164.385 116.723 164.159C117.269 163.932 117.765 163.6 118.182 163.182C118.6 162.765 118.932 162.269 119.159 161.723C119.385 161.176 119.501 160.591 119.5 160C119.501 159.409 119.385 158.824 119.159 158.277C118.932 157.731 118.6 157.235 118.182 156.818C117.765 156.4 117.269 156.068 116.723 155.841C116.176 155.615 115.591 155.499 115 155.5ZM33 173.5H25C24.4089 173.499 23.8236 173.615 23.2775 173.841C22.7314 174.068 22.2354 174.4 21.818 174.818C21.3995 175.235 21.0676 175.731 20.8415 176.277C20.6153 176.824 20.4992 177.409 20.5 178C20.5 179.243 21.004 180.368 21.818 181.182C22.2354 181.6 22.7314 181.932 23.2775 182.159C23.8236 182.385 24.4089 182.501 25 182.5H33C33.5911 182.501 34.1765 182.385 34.7225 182.159C35.2686 181.932 35.7646 181.6 36.182 181.182C36.6005 180.765 36.9324 180.269 37.1585 179.723C37.3847 179.176 37.5008 178.591 37.5 178C37.5008 177.409 37.3847 176.824 37.1585 176.277C36.9324 175.731 36.6005 175.235 36.182 174.818C35.7646 174.4 35.2686 174.068 34.7225 173.841C34.1765 173.615 33.5911 173.499 33 173.5ZM78 173.5H47C46.4089 173.499 45.8236 173.615 45.2775 173.841C44.7314 174.068 44.2354 174.4 43.818 174.818C43.3995 175.235 43.0677 175.731 42.8415 176.277C42.6153 176.824 42.4992 177.409 42.5 178C42.5 179.243 43.004 180.368 43.818 181.182C44.2354 181.6 44.7314 181.932 45.2775 182.159C45.8236 182.385 46.4089 182.501 47 182.5H78C78.5911 182.501 79.1765 182.385 79.7225 182.159C80.2686 181.932 80.7646 181.6 81.182 181.182C81.6005 180.765 81.9324 180.269 82.1585 179.723C82.3847 179.176 82.5008 178.591 82.5 178C82.5008 177.409 82.3847 176.824 82.1585 176.277C81.9324 175.731 81.6005 175.235 81.182 174.818C80.7646 174.4 80.2686 174.068 79.7225 173.841C79.1765 173.615 78.5911 173.499 78 173.5ZM125 173.5H92C91.4089 173.499 90.8235 173.615 90.2775 173.841C89.7314 174.068 89.2354 174.4 88.818 174.818C88.3995 175.235 88.0676 175.731 87.8415 176.277C87.6153 176.824 87.4992 177.409 87.5 178C87.5 179.243 88.004 180.368 88.818 181.182C89.2354 181.6 89.7314 181.932 90.2775 182.159C90.8235 182.385 91.4089 182.501 92 182.5H125C125.591 182.501 126.176 182.385 126.723 182.159C127.269 181.932 127.765 181.6 128.182 181.182C128.6 180.765 128.932 180.269 129.159 179.723C129.385 179.176 129.501 178.591 129.5 178C129.501 177.409 129.385 176.824 129.159 176.277C128.932 175.731 128.6 175.235 128.182 174.818C127.765 174.4 127.269 174.068 126.723 173.841C126.176 173.615 125.591 173.499 125 173.5ZM60 101.5H25C24.4089 101.499 23.8236 101.615 23.2775 101.841C22.7314 102.068 22.2354 102.4 21.818 102.818C21.3995 103.235 21.0676 103.731 20.8415 104.277C20.6153 104.824 20.4992 105.409 20.5 106C20.5 107.243 21.004 108.368 21.818 109.182C22.2354 109.6 22.7314 109.932 23.2775 110.159C23.8236 110.385 24.4089 110.501 25 110.5H60C60.5911 110.501 61.1765 110.385 61.7225 110.159C62.2686 109.932 62.7646 109.6 63.182 109.182C63.6005 108.765 63.9324 108.269 64.1585 107.723C64.3847 107.176 64.5008 106.591 64.5 106C64.5008 105.409 64.3847 104.824 64.1585 104.277C63.9324 103.731 63.6005 103.235 63.182 102.818C62.7646 102.4 62.2686 102.068 61.7225 101.841C61.1765 101.615 60.5911 101.499 60 101.5ZM39 119.5H25C24.4089 119.499 23.8236 119.615 23.2775 119.841C22.7314 120.068 22.2354 120.4 21.818 120.818C21.3995 121.235 21.0676 121.731 20.8415 122.277C20.6153 122.824 20.4992 123.409 20.5 124C20.5 125.243 21.004 126.368 21.818 127.182C22.2354 127.6 22.7314 127.932 23.2775 128.159C23.8236 128.385 24.4089 128.501 25 128.5H39C39.5911 128.501 40.1765 128.385 40.7225 128.159C41.2686 127.932 41.7646 127.6 42.182 127.182C42.6005 126.765 42.9324 126.269 43.1585 125.723C43.3847 125.176 43.5008 124.591 43.5 124C43.5008 123.409 43.3847 122.824 43.1585 122.277C42.9324 121.731 42.6005 121.235 42.182 120.818C41.7646 120.4 41.2686 120.068 40.7225 119.841C40.1765 119.615 39.5911 119.499 39 119.5ZM83 119.5H53C52.4089 119.499 51.8236 119.615 51.2775 119.841C50.7314 120.068 50.2354 120.4 49.818 120.818C49.3995 121.235 49.0677 121.731 48.8415 122.277C48.6153 122.824 48.4992 123.409 48.5 124C48.5 125.243 49.004 126.368 49.818 127.182C50.2354 127.6 50.7314 127.932 51.2775 128.159C51.8236 128.385 52.4089 128.501 53 128.5H83C83.5911 128.501 84.1765 128.385 84.7225 128.159C85.2686 127.932 85.7646 127.6 86.182 127.182C86.6005 126.765 86.9324 126.269 87.1585 125.723C87.3847 125.176 87.5008 124.591 87.5 124C87.5008 123.409 87.3847 122.824 87.1585 122.277C86.9324 121.731 86.6005 121.235 86.182 120.818C85.7646 120.4 85.2686 120.068 84.7225 119.841C84.1765 119.615 83.5911 119.499 83 119.5ZM127 119.5H97C96.4089 119.499 95.8235 119.615 95.2775 119.841C94.7314 120.068 94.2354 120.4 93.818 120.818C93.3995 121.235 93.0676 121.731 92.8415 122.277C92.6153 122.824 92.4992 123.409 92.5 124C92.5 125.243 93.004 126.368 93.818 127.182C94.2354 127.6 94.7314 127.932 95.2775 128.159C95.8235 128.385 96.4089 128.501 97 128.5H127C127.591 128.501 128.176 128.385 128.723 128.159C129.269 127.932 129.765 127.6 130.182 127.182C130.6 126.765 130.932 126.269 131.159 125.723C131.385 125.176 131.501 124.591 131.5 124C131.501 123.409 131.385 122.824 131.159 122.277C130.932 121.731 130.6 121.235 130.182 120.818C129.765 120.4 129.269 120.068 128.723 119.841C128.176 119.615 127.591 119.499 127 119.5ZM92 101.5H74C73.4089 101.499 72.8236 101.615 72.2775 101.841C71.7314 102.068 71.2354 102.4 70.818 102.818C70.3995 103.235 70.0676 103.731 69.8415 104.277C69.6153 104.824 69.4992 105.409 69.5 106C69.5 107.243 70.004 108.368 70.818 109.182C71.2354 109.6 71.7314 109.932 72.2775 110.159C72.8236 110.385 73.4089 110.501 74 110.5H92C92.5911 110.501 93.1765 110.385 93.7225 110.159C94.2686 109.932 94.7646 109.6 95.182 109.182C95.6005 108.765 95.9324 108.269 96.1585 107.723C96.3847 107.176 96.5008 106.591 96.5 106C96.5008 105.409 96.3847 104.824 96.1585 104.277C95.9324 103.731 95.6005 103.235 95.182 102.818C94.7646 102.4 94.2686 102.068 93.7225 101.841C93.1765 101.615 92.5911 101.499 92 101.5ZM137 101.5H106C105.409 101.499 104.824 101.615 104.277 101.841C103.731 102.068 103.235 102.4 102.818 102.818C102.4 103.235 102.068 103.731 101.841 104.277C101.615 104.824 101.499 105.409 101.5 106C101.5 107.243 102.004 108.368 102.818 109.182C103.235 109.6 103.731 109.932 104.277 110.159C104.824 110.385 105.409 110.501 106 110.5H137C137.591 110.501 138.176 110.385 138.723 110.159C139.269 109.932 139.765 109.6 140.182 109.182C140.6 108.765 140.932 108.269 141.159 107.723C141.385 107.176 141.501 106.591 141.5 106C141.501 105.409 141.385 104.824 141.159 104.277C140.932 103.731 140.6 103.235 140.182 102.818C139.765 102.4 139.269 102.068 138.723 101.841C138.176 101.615 137.591 101.499 137 101.5Z" fill="#F1F4F9" stroke="#E0E6ED"/>
</svg>
